<?xml version="1.0" encoding="utf-8"?>
<!-- Generator: Adobe Illustrator 16.0.0, SVG Export Plug-In . SVG Version: 6.00 Build 0)  -->
<!DOCTYPE svg PUBLIC "-//W3C//DTD SVG 1.1//EN" "http://www.w3.org/Graphics/SVG/1.1/DTD/svg11.dtd">
<svg version="1.1" id="Layer_1" xmlns="http://www.w3.org/2000/svg" xmlns:xlink="http://www.w3.org/1999/xlink" x="0px" y="0px"
	 width="427.016px" height="271.98px" viewBox="34.5 204.326 427.016 271.98" enable-background="new 34.5 204.326 427.016 271.98"
	 xml:space="preserve">
<g>
	<line fill="none" stroke="#56BDD8" stroke-width="4" stroke-miterlimit="10" x1="97.845" y1="244.742" x2="38.361" y2="244.742"/>
	<g>
		<g>
			
				<line fill="none" stroke="#56BDD8" stroke-width="4" stroke-miterlimit="10" x1="304.994" y1="276.937" x2="298.994" y2="276.937"/>
			
				<line fill="none" stroke="#56BDD8" stroke-width="4" stroke-miterlimit="10" stroke-dasharray="12.1254,12.1254" x1="286.869" y1="276.937" x2="50.423" y2="276.937"/>
			
				<line fill="none" stroke="#56BDD8" stroke-width="4" stroke-miterlimit="10" x1="44.361" y1="276.937" x2="38.361" y2="276.937"/>
		</g>
	</g>
	<path fill="#4A5B6F" d="M124.37,226.948c0-1.274,1.037-2.311,2.311-2.311h235.422c1.272,0,2.309,1.036,2.309,2.311v132.863h15.404
		V226.948c0-9.782-7.932-17.713-17.713-17.713H126.681c-9.783,0-17.714,7.932-17.714,17.713v132.863h15.403V226.948z"/>
	<path fill="#FFFFFF" d="M362.103,224.638H126.681c-1.273,0-2.311,1.036-2.311,2.311v132.863h240.041V226.948
		C364.411,225.674,363.375,224.638,362.103,224.638z"/>
	<path fill="#243347" d="M80.608,359.042v8.599c0,5.954,4.827,10.782,10.781,10.782h306.002c5.957,0,10.784-4.828,10.784-10.782
		v-8.599H80.608z"/>
	<rect x="135.993" y="265.084" fill="#EEEEEE" width="216.795" height="93.958"/>
	<rect x="135.993" y="235.818" fill="#56BDD8" width="216.795" height="29.266"/>
	<g>
		<rect x="208.996" y="245.316" fill="#FFFFFF" width="135.224" height="10.013"/>
		<rect x="179.191" y="245.316" fill="#FFFFFF" width="24.126" height="10.013"/>
		<rect x="144.562" y="245.316" fill="#FFFFFF" width="28.949" height="10.013"/>
	</g>
	<polyline fill="none" stroke="#243347" stroke-width="4" stroke-miterlimit="10" points="393.208,325.119 457.556,325.119 
		457.556,440.695 38.361,440.695 38.361,325.119 95.003,325.119 	"/>
	<g>
		<g>
			
				<line fill="none" stroke="#56BDD8" stroke-width="4" stroke-miterlimit="10" x1="459.656" y1="276.937" x2="453.656" y2="276.937"/>
			
				<line fill="none" stroke="#56BDD8" stroke-width="4" stroke-miterlimit="10" stroke-dasharray="12.2963,12.2963" x1="441.36" y1="276.937" x2="398.323" y2="276.937"/>
			
				<line fill="none" stroke="#56BDD8" stroke-width="4" stroke-miterlimit="10" x1="392.174" y1="276.937" x2="386.174" y2="276.937"/>
		</g>
	</g>
	<line fill="none" stroke="#56BDD8" stroke-width="4" stroke-miterlimit="10" x1="459.656" y1="298.63" x2="386.174" y2="298.63"/>
	<g>
		<circle fill="#8CC63F" cx="92.087" cy="439.445" r="36.859"/>
		<circle fill="#8CC63F" cx="192.461" cy="439.445" r="36.859"/>
		<circle fill="#8CC63F" cx="292.834" cy="439.445" r="36.858"/>
		<circle fill="#8CC63F" cx="393.209" cy="439.445" r="36.859"/>
	</g>
	<g>
		<rect x="70.013" y="418.829" fill="#FFFFFF" width="42.274" height="42.275"/>
		<text transform="matrix(1 0 0 1 76.1145 437.2402)" fill="#243347" font-family="'LeagueSpartan-Bold'" font-size="15.2815">i</text>
		<g>
			<path fill="#243347" d="M107.004,428.812H84.692c-0.064,0-0.118-0.054-0.118-0.118s0.054-0.119,0.118-0.119h22.313
				c0.063,0,0.116,0.055,0.116,0.119S107.068,428.812,107.004,428.812z"/>
		</g>
		<g>
			<path fill="#243347" d="M107.004,433.234H84.692c-0.064,0-0.118-0.052-0.118-0.117c0-0.068,0.054-0.119,0.118-0.119h22.313
				c0.063,0,0.116,0.051,0.116,0.119C107.12,433.183,107.068,433.234,107.004,433.234z"/>
		</g>
		<g>
			<path fill="#243347" d="M107.004,437.655H84.692c-0.064,0-0.118-0.053-0.118-0.116c0-0.064,0.054-0.119,0.118-0.119h22.313
				c0.063,0,0.116,0.055,0.116,0.119C107.12,437.603,107.068,437.655,107.004,437.655z"/>
		</g>
		<g>
			<path fill="#243347" d="M107.004,442.079H76.355c-0.065,0-0.118-0.051-0.118-0.118c0-0.064,0.053-0.116,0.118-0.116h30.649
				c0.063,0,0.116,0.052,0.116,0.116C107.12,442.028,107.068,442.079,107.004,442.079z"/>
		</g>
		<g>
			<path fill="#243347" d="M107.004,446.501H76.355c-0.065,0-0.118-0.051-0.118-0.118c0-0.062,0.053-0.113,0.118-0.113h30.649
				c0.063,0,0.116,0.052,0.116,0.113C107.12,446.45,107.068,446.501,107.004,446.501z"/>
		</g>
		<g>
			<path fill="#243347" d="M107.004,450.927H76.355c-0.065,0-0.118-0.053-0.118-0.119c0-0.064,0.053-0.116,0.118-0.116h30.649
				c0.063,0,0.116,0.052,0.116,0.116C107.12,450.874,107.068,450.927,107.004,450.927z"/>
		</g>
		<g>
			<path fill="#243347" d="M107.004,455.349H76.355c-0.065,0-0.118-0.053-0.118-0.116c0-0.064,0.053-0.117,0.118-0.117h30.649
				c0.063,0,0.116,0.053,0.116,0.117C107.12,455.296,107.068,455.349,107.004,455.349z"/>
		</g>
	</g>
	<g>
		<path fill="#9E5685" d="M203.518,422.719c-4.185-8.711-14.639-12.386-23.352-8.2c-8.714,4.184-12.385,14.639-8.201,23.354
			c3.415,7.112,11.009,10.861,18.422,9.726l9.053,18.852c1.094,2.276,3.826,3.235,6.104,2.144c2.276-1.093,3.237-3.828,2.143-6.103
			l-8.929-18.598C204.922,438.909,207.1,430.179,203.518,422.719z"/>
		<circle fill="#E0E0E0" cx="187.799" cy="430.416" r="12.331"/>
	</g>
	<g>
		
			<rect x="286.266" y="417.142" transform="matrix(0.9423 0.3347 -0.3347 0.9423 163.5743 -72.2431)" fill="#F55F2E" width="10.216" height="42.575"/>
		<g>
			<polygon fill="#F9B981" points="285.096,463.773 289.087,460.193 284.261,458.478 279.432,456.762 280.27,462.059 
				280.388,462.808 284.531,464.28 			"/>
			<polygon fill="#28220E" points="284.531,464.28 280.388,462.808 281.107,467.355 			"/>
		</g>
		
			<rect x="293.573" y="417.259" transform="matrix(0.9423 0.3346 -0.3346 0.9423 157.0445 -75.8628)" fill="#9E5685" width="10.231" height="1.159"/>
		
			<rect x="294.522" y="412.908" transform="matrix(0.9424 0.3346 -0.3346 0.9424 156.1776 -76.3257)" fill="#6D2B59" width="10.23" height="4.523"/>
	</g>
	<circle fill="#FFFFFF" cx="410.49" cy="213.308" r="6.649"/>
	<circle fill="#FFBA00" stroke="#8B8B8B" stroke-miterlimit="10" cx="410.49" cy="213.308" r="8.981"/>
	<g>
		
			<rect x="392.577" y="238.202" transform="matrix(0.7071 -0.7071 0.7071 0.7071 -55.3192 351.8438)" fill="#FFBA00" stroke="#8B8B8B" stroke-miterlimit="10" width="8.999" height="8.999"/>
		
			<rect x="390.961" y="236.585" transform="matrix(0.7071 -0.7071 0.7071 0.7071 -55.3107 351.8734)" fill="#FFBA00" stroke="#8B8B8B" stroke-miterlimit="10" width="12.231" height="12.229"/>
	</g>
	<g>
		
			<rect x="82.553" y="300.486" transform="matrix(0.7072 -0.707 0.707 0.7072 -190.137 150.8416)" fill="#FFBA00" stroke="#8B8B8B" stroke-miterlimit="10" width="8.999" height="9"/>
		
			<rect x="80.937" y="298.87" transform="matrix(0.7071 -0.7071 0.7071 0.7071 -190.1683 150.8994)" fill="#FFBA00" stroke="#8B8B8B" stroke-miterlimit="10" width="12.231" height="12.231"/>
	</g>
	<circle fill="#FFBA00" cx="421.22" cy="240.603" r="8.887"/>
	<circle fill="#FFBA00" cx="73.176" cy="290.275" r="3.639"/>
	<g>
		<g>
			<path fill="#FFFFFF" d="M392.128,441.024c-0.01,0.711,0.62,1.606,1.993,2.597l-0.003-4.438c-0.544,0.082-0.998,0.289-1.368,0.605
				C392.323,440.156,392.132,440.551,392.128,441.024z"/>
		</g>
		<g>
			<path fill="#FFFFFF" d="M395.387,449.242l0.003,5.015c0.69-0.063,1.246-0.28,1.686-0.646c0.491-0.414,0.715-0.882,0.722-1.486
				c-0.005-0.468-0.182-0.919-0.58-1.391C396.868,450.319,396.26,449.813,395.387,449.242z"/>
		</g>
		<g>
			<path fill="#FFFFFF" d="M408.588,446.861c-0.352-2.285-0.702-3.913-0.699-3.913l-0.016-0.054v-0.067
				c0.016-5.646-4.603-10.358-10.457-12.947l-7.32,0.005c-5.854,2.593-10.467,7.309-10.449,12.959v0.064l-0.01,0.054
				c0,0.012-1.397,6.539-1.39,11.765c-0.022,2.611,0.407,4.878,1.247,5.677c2.349,2.386,8.325,3.737,14.278,3.717
				c5.954,0.013,11.934-1.338,14.275-3.731c0.84-0.797,1.269-3.061,1.248-5.68C409.291,452.104,408.936,449.152,408.588,446.861z
				 M399.141,454.378c-0.987,0.817-2.249,1.247-3.751,1.282v1.823l-1.265,0.002v-1.828c-1.979-0.098-3.593-0.754-4.788-1.989
				l-0.088-0.086l0.679-3.746h0.938l0.024,0.222c0.311,2.609,1.35,3.92,3.233,4.184v-5.864c-1.811-1.287-3.041-2.321-3.71-3.15
				c-0.685-0.846-1.038-1.79-1.036-2.805c-0.005-1.25,0.49-2.346,1.45-3.234c0.898-0.836,2.01-1.303,3.289-1.405v-1.025v-0.247
				h1.261v1.266c1.679,0.097,3.106,0.669,4.243,1.698l0.092,0.09l-0.41,3.729l-0.962,0.002l-0.016-0.239
				c-0.087-1.3-0.417-2.269-0.955-2.91c-0.496-0.592-1.138-0.915-1.986-0.982l0.001,5.335c2.107,1.4,3.508,2.541,4.235,3.455
				c0.726,0.926,1.101,1.963,1.104,3.079C400.725,452.378,400.186,453.522,399.141,454.378z"/>
		</g>
		<g>
			<path fill="#FFFFFF" d="M390.12,427.154c-0.287,0-0.523,0.394-0.527,0.882c0,0.483,0.24,0.885,0.527,0.881l7.519-0.004
				c0.29-0.003,0.521-0.394,0.521-0.88c0-0.491-0.232-0.884-0.521-0.884L390.12,427.154z"/>
		</g>
		<g>
			<path fill="#FFFFFF" d="M391.467,426.109c3.739,0.312,6.071,0.312,7.945-2.966c1.865-3.267,3.493-6.312,1.786-5.997
				c-1.715,0.314-4.67,1.019-7.321,0.317c-2.649-0.699-7.399-2.719-7.32-1.393c0.082,1.318,0.547,3.034,0.547,3.034
				S387.728,425.804,391.467,426.109z"/>
		</g>
	</g>
	<g>
		<g>
			<g>
				<g>
					
						<rect x="234.539" y="299.781" transform="matrix(0.098 0.9952 -0.9952 0.098 524.0173 49.0172)" fill="#ABABAB" width="0.857" height="27.631"/>
				</g>
			</g>
			<g>
				<g>
					<path fill="none" stroke="#ABABAB" stroke-width="1.5" stroke-miterlimit="10" d="M226.974,278.169"/>
				</g>
			</g>
			<g>
				<g>
					<path fill="none" stroke="#B7B7B7" stroke-width="0.5" stroke-miterlimit="10" d="M266.144,328.32"/>
				</g>
			</g>
			<g>
				<g>
					<path fill="none" stroke="#B7B7B7" stroke-width="0.5" stroke-miterlimit="10" d="M222.101,306.942"/>
				</g>
			</g>
			<g>
				<g>
					<path fill="none" stroke="#B7B7B7" stroke-width="0.5" stroke-miterlimit="10" d="M274.149,329.897"/>
				</g>
			</g>
			<g>
				<g>
					<polygon fill="#ABABAB" points="265.867,328.646 247.74,313.127 226.729,278.392 227.462,277.946 248.438,312.623 
						266.422,327.997 					"/>
				</g>
			</g>
			<g>
				<g>
					
						<rect x="239.441" y="308.557" transform="matrix(0.5806 0.8142 -0.8142 0.5806 360.1559 -61.3795)" fill="#ABABAB" width="0.431" height="20.679"/>
				</g>
			</g>
			<g>
				<g>
					
						<rect x="261.654" y="275.724" transform="matrix(0.7561 0.6545 -0.6545 0.7561 258.2343 -99.1046)" fill="#ABABAB" width="0.855" height="42.372"/>
				</g>
			</g>
			<g>
				<g>
					<g>
						<path fill="#82D2E8" d="M222.22,281.461c1.814,2.701,5.472,3.412,8.163,1.6c2.695-1.829,3.405-5.484,1.589-8.183
							c-1.814-2.697-5.473-3.405-8.159-1.589C221.115,275.105,220.405,278.769,222.22,281.461z"/>
					</g>
				</g>
				<g>
					<g>
						<circle fill="#224772" cx="266.144" cy="328.319" r="4.37"/>
					</g>
				</g>
				<g>
					<g>
						<path fill="#2AA0D3" d="M271.11,284.285c1.818,2.698,5.476,3.413,8.167,1.597c2.69-1.823,3.404-5.486,1.587-8.179
							c-1.815-2.694-5.472-3.411-8.165-1.589C270.007,277.937,269.297,281.594,271.11,284.285z"/>
					</g>
				</g>
				<g>
					<g>
						<path fill="#3498DB" d="M214.734,317.169c1.236,1.836,3.72,2.321,5.553,1.086c1.83-1.241,2.315-3.726,1.08-5.564
							c-1.235-1.831-3.722-2.316-5.553-1.082C213.983,312.849,213.494,315.335,214.734,317.169z"/>
					</g>
				</g>
				<g>
					<g>
						<path fill="#56BDD8" d="M240.124,318.703c3.197,4.747,9.632,6,14.376,2.804c4.748-3.213,5.997-9.659,2.802-14.392
							c-3.194-4.758-9.636-6.007-14.381-2.813C238.181,307.502,236.923,313.951,240.124,318.703z"/>
					</g>
				</g>
				<g>
					<g>
						<path fill="#9AD9E8" d="M228.255,326.76c1.093,1.623,3.285,2.046,4.904,0.955c1.613-1.088,2.042-3.292,0.952-4.911
							c-1.09-1.615-3.285-2.039-4.896-0.955C227.598,322.94,227.169,325.145,228.255,326.76z"/>
					</g>
				</g>
			</g>
		</g>
		<g>
			<g>
				<path fill="#777777" d="M176.247,350.161c1.048,0.958,2.288,1.435,3.729,1.435c1.548,0,2.868-0.548,3.962-1.64
					c0.142-0.142,0.271-0.283,0.394-0.434l1.175,0.423c-0.217,0.295-0.458,0.575-0.729,0.847c-1.324,1.324-2.925,1.988-4.801,1.988
					c-1.868,0-3.46-0.666-4.788-1.988c-1.322-1.324-1.985-2.92-1.985-4.801c0-1.867,0.663-3.461,1.985-4.786
					c1.326-1.323,2.921-1.988,4.788-1.988c1.604,0,3.004,0.485,4.21,1.447c0.196,0.159,0.395,0.345,0.589,0.541
					c0.071,0.078,0.146,0.146,0.209,0.222l-0.836,0.839L176.247,350.161z M183.332,341.513c-0.962-0.74-2.083-1.105-3.354-1.105
					c-1.541,0-2.859,0.547-3.952,1.636c-1.094,1.088-1.642,2.404-1.642,3.956c0,1.272,0.374,2.394,1.11,3.354L183.332,341.513z"/>
			</g>
			<g>
				<path fill="#777777" d="M188.158,344.579h7.279v1.105h-7.279V344.579z"/>
			</g>
			<g>
				<path fill="#777777" d="M200.434,341.427v11.011h-1.11v-11.011h-1.231v-1.103h1.231v-3.29c0.049-0.916,0.4-1.697,1.048-2.363
					c0.675-0.614,1.454-0.935,2.333-0.935c0.459,0,0.945,0.09,1.454,0.266l-0.347,0.985c-0.346-0.15-0.68-0.221-0.998-0.221
					c-0.586,0-1.136,0.229-1.653,0.705c-0.462,0.45-0.7,0.996-0.73,1.641v3.208h2.47v1.109h-2.466V341.427z"/>
			</g>
			<g>
				<path fill="#777777" d="M211.071,339.22c1.877,0,3.474,0.667,4.794,1.986c1.323,1.324,1.979,2.925,1.979,4.806
					c0,1.865-0.658,3.459-1.979,4.785c-1.322,1.322-2.917,1.987-4.794,1.987c-1.869,0-3.459-0.668-4.788-1.987
					c-1.324-1.326-1.985-2.923-1.985-4.785c0-1.881,0.661-3.481,1.985-4.806C207.61,339.887,209.201,339.22,211.071,339.22z
					 M207.111,342.046c-1.094,1.094-1.641,2.416-1.641,3.968c0,1.546,0.547,2.859,1.641,3.95c1.091,1.088,2.415,1.632,3.959,1.632
					c1.546,0,2.87-0.544,3.963-1.632c1.094-1.088,1.64-2.405,1.64-3.95c0-1.552-0.546-2.872-1.64-3.968
					c-1.093-1.091-2.417-1.644-3.963-1.644C209.526,340.4,208.202,340.954,207.111,342.046z"/>
			</g>
			<g>
				<path fill="#777777" d="M220.809,340.318h1.108v2.209c0.23-0.334,0.5-0.651,0.802-0.951c0.981-0.977,1.981-1.493,3.01-1.544
					v1.21c-0.698,0.036-1.423,0.425-2.17,1.172c-1.052,1.048-1.601,2.297-1.642,3.763v6.259h-1.108V340.318z"/>
			</g>
			<g>
				<path fill="#777777" d="M229.57,343.02v9.418h-1.11v-12.119h1.11v0.773c1.011-1.002,2.191-1.5,3.528-1.5
					c1.431,0,2.596,0.446,3.488,1.347c0.901,0.89,1.359,2.024,1.384,3.388v8.111h-1.108v-8.005c0-1.033-0.37-1.913-1.116-2.643
					c-0.745-0.726-1.631-1.085-2.646-1.085c-1.017,0-1.9,0.356-2.639,1.07C230.055,342.178,229.755,342.593,229.57,343.02z"/>
			</g>
			<g>
				<path fill="#777777" d="M243.981,350.161c1.047,0.958,2.284,1.435,3.727,1.435c1.548,0,2.868-0.548,3.959-1.64
					c0.14-0.142,0.275-0.283,0.397-0.434l1.168,0.423c-0.212,0.295-0.453,0.575-0.723,0.847c-1.325,1.324-2.932,1.988-4.802,1.988
					c-1.867,0-3.464-0.666-4.788-1.988c-1.322-1.324-1.985-2.92-1.985-4.801c0-1.867,0.661-3.461,1.985-4.786
					c1.324-1.323,2.923-1.988,4.788-1.988c1.604,0,3.007,0.485,4.209,1.447c0.195,0.159,0.396,0.345,0.594,0.541
					c0.073,0.078,0.143,0.146,0.209,0.222l-0.842,0.839L243.981,350.161z M251.062,341.513c-0.963-0.74-2.081-1.105-3.354-1.105
					c-1.54,0-2.854,0.547-3.946,1.636c-1.099,1.088-1.644,2.404-1.644,3.956c0,1.272,0.37,2.394,1.11,3.354L251.062,341.513z"/>
			</g>
			<g>
				<path fill="#777777" d="M266.583,349.522l1.171,0.424c-0.211,0.294-0.455,0.575-0.729,0.851
					c-1.322,1.322-2.921,1.987-4.801,1.987c-1.863,0-3.459-0.668-4.78-1.987c-1.324-1.326-1.988-2.924-1.988-4.803
					c0-1.87,0.664-3.464,1.988-4.788c1.321-1.324,2.919-1.986,4.78-1.986c1.883,0,3.481,0.667,4.801,1.986
					c0.274,0.273,0.519,0.554,0.729,0.84l-1.171,0.434c-0.125-0.147-0.258-0.296-0.395-0.445c-1.096-1.085-2.416-1.632-3.965-1.632
					c-1.535,0-2.848,0.552-3.947,1.641c-1.095,1.086-1.643,2.407-1.643,3.956c0,1.546,0.547,2.866,1.643,3.963
					c1.097,1.092,2.412,1.639,3.947,1.639c1.549,0,2.873-0.545,3.965-1.639C266.327,349.814,266.458,349.673,266.583,349.522z"/>
			</g>
			<g>
				<path fill="#777777" d="M273.026,350.161c1.046,0.958,2.288,1.435,3.726,1.435c1.549,0,2.866-0.548,3.961-1.64
					c0.142-0.142,0.273-0.283,0.398-0.434l1.169,0.423c-0.213,0.295-0.457,0.575-0.728,0.847c-1.322,1.324-2.923,1.988-4.799,1.988
					c-1.871,0-3.465-0.666-4.784-1.988c-1.327-1.324-1.99-2.92-1.99-4.801c0-1.867,0.661-3.461,1.99-4.786
					c1.32-1.323,2.92-1.988,4.784-1.988c1.604,0,3.005,0.485,4.208,1.447c0.196,0.159,0.395,0.345,0.591,0.541
					c0.071,0.078,0.141,0.146,0.208,0.222l-0.837,0.839L273.026,350.161z M280.105,341.513c-0.959-0.74-2.074-1.105-3.354-1.105
					c-1.541,0-2.854,0.547-3.95,1.636c-1.094,1.088-1.64,2.404-1.64,3.956c0,1.272,0.369,2.394,1.107,3.354L280.105,341.513z"/>
			</g>
			<g>
				<path fill="#777777" d="M298.321,352.438h-1.107v-2.47c-0.217,0.29-0.45,0.563-0.705,0.829
					c-1.327,1.324-2.923,1.987-4.798,1.987c-1.871,0-3.467-0.665-4.788-1.987c-1.325-1.324-1.987-2.92-1.987-4.783
					c0-1.878,0.657-3.479,1.987-4.805c1.324-1.322,2.92-1.987,4.788-1.987c1.877,0,3.471,0.665,4.798,1.987
					c0.255,0.264,0.488,0.537,0.705,0.825v-9.343h1.107V352.438z M297.213,347.107v-2.196c-0.206-1.087-0.724-2.042-1.546-2.865
					c-1.093-1.091-2.416-1.644-3.957-1.644c-1.553,0-2.873,0.552-3.961,1.644c-1.098,1.094-1.644,2.416-1.644,3.968
					c0,1.546,0.546,2.859,1.644,3.95c1.086,1.088,2.408,1.632,3.961,1.632c1.541,0,2.865-0.544,3.957-1.64
					C296.49,349.133,297.001,348.187,297.213,347.107z"/>
			</g>
			<g>
				<path fill="#777777" d="M308.057,339.22c1.875,0,3.472,0.667,4.791,1.986c1.32,1.324,1.98,2.925,1.98,4.806
					c0,1.865-0.664,3.459-1.98,4.785c-1.321,1.322-2.922,1.987-4.791,1.987c-1.87,0-3.464-0.668-4.792-1.987
					c-1.322-1.326-1.983-2.923-1.983-4.785c0-1.881,0.661-3.481,1.983-4.806C304.593,339.887,306.187,339.22,308.057,339.22z
					 M304.093,342.046c-1.091,1.094-1.639,2.416-1.639,3.968c0,1.546,0.546,2.859,1.639,3.95c1.095,1.088,2.417,1.632,3.964,1.632
					s2.868-0.544,3.958-1.632c1.095-1.088,1.646-2.405,1.646-3.95c0-1.552-0.551-2.872-1.646-3.968
					c-1.088-1.091-2.411-1.644-3.958-1.644C306.512,340.4,305.191,340.954,304.093,342.046z"/>
			</g>
			<g>
				<path fill="#777777" d="M317.794,340.318h1.11v2.209c0.226-0.334,0.499-0.651,0.796-0.951c0.984-0.977,1.983-1.493,3.014-1.544
					v1.21c-0.699,0.036-1.418,0.425-2.172,1.172c-1.053,1.048-1.603,2.297-1.64,3.763v6.259h-1.109L317.794,340.318L317.794,340.318
					z"/>
			</g>
		</g>
	</g>
</g>
</svg>
